#!OML:ASF F:\VICON\USERDATA\INSTALL\rory3\rory3.ASF
:FULLY-SPECIFIED
:DEGREES
988
root -0.0550059 20.7827 8.54507 11.8724 -5.37452 -1.73918
lowerback -5.01968 -1.54699 3.60083
upperback -6.20995 -2.14085 0.883163
thorax -3.70641 -1.2062 -1.13494
lowerneck -4.49327 -12.9615 -14.7485
upperneck 20.0081 -17.1951 4.38496
head 8.6699 -8.92945 2.04227
rclavicle 1.80273e-014 6.95746e-015
rhumerus -39.6061 15.1364 -90.9737
rradius 30.3633
rwrist 9.52924
rhand -25.3485 -46.8448
rfingers 7.12502
rthumb 1.17496 -76.8214
lclavicle 1.80273e-014 6.95746e-015
lhumerus -54.0682 -10.1818 89.8952
lradius 38.9387
lwrist 6.42192
lhand -33.1617 -36.8735
lfingers 7.12502
lthumb -6.37035 -6.98927
rfemur -31.0737 2.09868 15.5236
rtibia 46.3274
rfoot 6.36096 -5.88651
rtoes -18.1356
lfemur -23.9812 3.49308 -9.86706
ltibia 38.0397
lfoot 9.84566 3.50336
ltoes -15.8971
989
root -0.0483278 20.7946 8.53585 11.5717 -5.50314 -1.33847
lowerback -4.79506 -1.57196 3.17999
upperback -6.24356 -2.15785 0.772887
thorax -3.85386 -1.20218 -1.00642
lowerneck -4.56012 -13.0437 -14.8817
upperneck 20.2951 -17.2461 4.12523
head 8.7764 -8.98569 1.95502
rclavicle -1.22625e-014 -1.86858e-014
rhumerus -39.6704 15.3552 -91.1502
rradius 30.2531
rwrist 9.75017
rhand -24.7974 -47.1757
rfingers 7.12502
rthumb 1.70721 -77.1486
lclavicle -1.22625e-014 -1.86858e-014
lhumerus -54.5212 -9.77785 89.7935
lradius 38.5827
lwrist 6.33653
lhand -33.1633 -36.4851
lfingers 7.12502
lthumb -6.37185 -6.60091
rfemur -30.5979 2.12403 15.0417
rtibia 45.8693
rfoot 5.76348 -5.14526
rtoes -19.8285
lfemur -23.2182 3.06997 -10.2131
ltibia 36.9174
lfoot 10.4418 3.69945
ltoes -16.865
990
root -0.0376219 20.7961 8.53525 11.4079 -5.52782 -0.831005
lowerback -4.86927 -1.58054 2.77618
upperback -6.24003 -2.16811 0.607196
thorax -3.79779 -1.19385 -0.95502
lowerneck -4.66907 -13.2284 -15.2965
upperneck 20.6522 -17.4525 4.09379
head 8.98039 -9.11426 1.94899
rclavicle 5.59082e-015 -5.96354e-016
rhumerus -39.5814 15.3496 -91.1757
rradius 30.0628
rwrist 9.99128
rhand -24.4947 -47.1063
rfingers 7.12502
rthumb 1.99955 -77.0767
lclavicle 5.59082e-015 -5.96354e-016
lhumerus -54.8898 -9.4098 89.685
lradius 38.2666
lwrist 6.31288
lhand -32.9372 -35.4528
lfingers 7.12502
lthumb -6.15358 -5.56212
rfemur -30.1287 1.95655 14.4052
rtibia 45.2109
rfoot 5.19042 -4.52441
rtoes -20.1407
lfemur -22.5988 2.62232 -10.7
ltibia 35.8427
lfoot 11.176 3.82864
ltoes -17.691
991
root -0.0285249 20.7898 8.53912 11.4472 -5.48079 -0.850488
lowerback -5.2389 -1.5616 2.90377
upperback -6.18053 -2.15977 0.593457
thorax -3.53431 -1.19183 -1.05363
lowerneck -3.62214 -13.2108 -16.0524
upperneck 19.9896 -17.618 4.76523
head 8.7225 -9.20808 2.33343
rclavicle 2.18166e-014 9.93923e-016
rhumerus -39.3544 15.3744 -91.1662
rradius 29.8947
rwrist 9.93682
rhand -24.66 -46.6096
rfingers 7.12502
rthumb 1.83995 -76.5814
lclavicle 2.18166e-014 9.93923e-016
lhumerus -55.0854 -8.96552 89.5143
lradius 37.9669
lwrist 6.37221
lhand -33.1133 -35.8639
lfingers 7.12502
lthumb -6.32362 -5.97827
rfemur -29.7184 1.95745 14.315
rtibia 44.3591
rfoot 4.83911 -4.01808
rtoes -19.4447
lfemur -22.1621 2.31879 -10.6004
ltibia 34.8106
lfoot 12.1448 3.71416
ltoes -18.1903
992
root -0.0265068 20.7764 8.54524 11.7341 -5.42438 -1.12911
lowerback -5.83054 -1.52093 3.19084
upperback -6.21491 -2.1335 0.676417
thorax -3.24831 -1.18539 -1.14597
lowerneck -3.02193 -13.1923 -16.4485
upperneck 19.6081 -17.6885 5.04766
head 8.56043 -9.25687 2.51873
rclavicle 3.08116e-015 -5.36719e-015
rhumerus -39.2256 15.4529 -91.1825
rradius 29.7835
rwrist 9.76913
rhand -24.8075 -46.3486
rfingers 7.12502
rthumb 1.69747 -76.3216
lclavicle 3.08116e-015 -5.36719e-015
lhumerus -55.3015 -8.55713 89.3471
lradius 37.6344
lwrist 6.34187
lhand -33.6318 -37.8271
lfingers 7.12502
lthumb -6.82417 -7.9571
rfemur -29.5173 2.20861 14.4947
rtibia 43.3901
rfoot 4.73023 -3.62644
rtoes -19.383
lfemur -22.0068 2.17761 -10.1997
ltibia 33.856
lfoot 13.0242 3.4785
ltoes -18.4081
993
root -0.0298642 20.7488 8.55051 12.0891 -5.33774 -1.17529
lowerback -6.53803 -1.483 3.17074
upperback -6.32299 -2.10784 0.677953
thorax -2.96599 -1.16984 -1.15268
lowerneck -2.95804 -13.2123 -16.2603
upperneck 19.68 -17.6723 4.67794
head 8.51957 -9.26877 2.38072
rclavicle 1.19271e-014 5.56597e-015
rhumerus -39.3953 15.4691 -91.2532
rradius 29.9683
rwrist 9.71275
rhand -24.4977 -46.8752
rfingers 7.12502
rthumb 1.99667 -76.8456
lclavicle 1.19271e-014 5.56597e-015
lhumerus -55.6459 -8.40747 89.2426
lradius 37.3424
lwrist 6.28684
lhand -32.9788 -36.8792
lfingers 7.12502
lthumb -6.19374 -6.98979
rfemur -29.3867 2.5611 14.4004
rtibia 42.3702
rfoot 4.80425 -3.3628
rtoes -19.4186
lfemur -22.0435 2.00115 -10.0165
ltibia 33.0326
lfoot 13.5915 3.38232
ltoes -18.6717
994
root -0.0339129 20.7048 8.55363 12.4502 -5.32907 -1.08639
lowerback -7.27727 -1.469 2.95349
upperback -6.44953 -2.10542 0.679074
thorax -2.67947 -1.15886 -1.05094
lowerneck -2.8207 -13.2274 -16.1964
upperneck 19.7071 -17.6662 4.39695
head 8.47259 -9.2881 2.29243
rclavicle 1.15419e-014 -1.11319e-014
rhumerus -39.4834 15.4756 -91.3102
rradius 29.9532
rwrist 9.77025
rhand -24.3323 -47.3894
rfingers 7.12502
rthumb 2.15647 -77.3583
lclavicle 1.15419e-014 -1.11319e-014
lhumerus -55.995 -8.25703 89.2099
lradius 37.0322
lwrist 6.48242
lhand -32.9603 -36.7665
lfingers 7.12502
lthumb -6.17591 -6.8765
rfemur -29.3055 3.01728 14.1077
rtibia 41.349
rfoot 5.3304 -3.02458
rtoes -19.2639
lfemur -22.159 1.79825 -9.98052
ltibia 32.3333
lfoot 14.186 3.2618
ltoes -18.8085
